# xmcd
#
# Track frame offsets:
#	182
#	17957
#	36387
#	69482
#
# Disc length: 1302 seconds
#
# Revision: 2
# Processed by: cddbd v1.5.1PL0 Copyright (c) Steve Scherf et al.
# Submitted via: MusicWizard 7.0.2
#
DISCID=32051404
DTITLE=Snap! - Rame
DYEAR=1996
DGENRE=Dance - Disco
TTITLE0=Rame (Oryginal Version)
TTITLE1=Rame (Slomo Version)
TTITLE2=Rame (Resistance D. Remix)
TTITLE3=Rame (80% Stereo Mix)
EXTD=
EXTT0=
EXTT1=
EXTT2=
EXTT3=
PLAYORDER=
